# xmcd
#
# Track frame offsets: 
#        150
#        22740
#        40837
#        81634
#        106914
#        138377
#        186924
#        217232
#
# Disc length: 3314 seconds
#
# Revision: 0
# Processed by: cddbd v1.5.2PL0 Copyright (c) Steve Scherf et al.
# Submitted via: ExactAudioCopy v0.95b4
#
DISCID=6e0cf008
DTITLE=Eric Clapton - A Stormy Monday In Cologne 2001 - CD2
DYEAR=2001
DGENRE=Blues
TTITLE0=Badge
TTITLE1=Hoochie Coochie Man
TTITLE2=Stormy Monday
TTITLE3=Cocaine
TTITLE4=Wonderful Tonight
TTITLE5=Layla
TTITLE6=Sunshine Of Your Love
TTITLE7=Somewhere Over The Rainbow
EXTD=
EXTT0=
EXTT1=
EXTT2=
EXTT3=
EXTT4=
EXTT5=
EXTT6=
EXTT7=
PLAYORDER=
